<svg xmlns="http://www.w3.org/2000/svg" viewBox="0 0 196.32 188.2">
  <defs>
    <style>
      .cls-1 {
        fill: #bf7721;
      }

      .cls-2 {
        fill: #c07924;
      }

      .cls-3 {
        fill: #c27c26;
      }

      .cls-4 {
        fill: #c37e29;
      }

      .cls-5 {
        fill: #c4802c;
      }

      .cls-6 {
        fill: #c6822e;
      }

      .cls-7 {
        fill: #c78531;
      }

      .cls-8 {
        fill: #c98733;
      }

      .cls-9 {
        fill: #ca8936;
      }

      .cls-10 {
        fill: #cb8b39;
      }

      .cls-11 {
        fill: #cd8e3b;
      }

      .cls-12 {
        fill: #ce903e;
      }

      .cls-13 {
        fill: #cf903e;
      }

      .cls-14 {
        fill: #cf903f;
      }

      .cls-15 {
        fill: #d0913f;
      }

      .cls-16 {
        fill: #d1913f;
      }

      .cls-17 {
        fill: #d2913f;
      }

      .cls-18 {
        fill: #d29140;
      }

      .cls-19 {
        fill: #d39140;
      }

      .cls-20 {
        fill: #d49140;
      }

      .cls-21 {
        fill: #d59240;
      }

      .cls-22 {
        fill: #d59241;
      }

      .cls-23 {
        fill: #d69241;
      }

      .cls-24 {
        fill: #51310e;
      }

      .cls-25 {
        fill: #56320f;
      }

      .cls-26 {
        fill: #6d3c17;
      }
    </style>
  </defs>
  <g id="レイヤー_1" data-name="レイヤー 1">
    <g>
      <g>
        <g>
          <path class="cls-1" d="M196,90.06c.48,11.11-4.07,21.28-8,31s-7.62,20.19-15,28.23c-7.05,7.67-17.13,12.43-26.4,18.21-8.93,5.57-17.54,12.6-27.73,16.14s-21,3.32-31.56,4.56c-7.47-1.91-16.94-2.86-25.79-7.78-7.56-4.21-13.63-11.64-20.56-17.89-6.68-6-14.77-11.25-19.5-19-4.65-7.63-5.56-17-7.06-26.2-1.37-8.38-3.85-17.08-1.62-26.68-3.57-9.17-1.21-18.22,1-27.18,2.11-8.67,4.15-18.17,10.11-25.85,5.54-7.13,14.27-11.76,21.89-17.38S60.18,7.64,68.58,4.15C77.64.39,87.4.6,96.05,0c9.42.37,19.26.09,28.23,3.89,8.58,3.63,15.48,10.94,23.14,17,7.43,5.83,16.18,10.69,22.29,18.06S179,55.84,183.34,64.15C187.92,72.89,193.9,81.13,196,90.06Z"/>
          <path class="cls-2" d="M183.62,92.86c2.67,9.54.14,18.67-1.76,27.65s-3.5,18.79-8.84,26.69c-5.22,7.73-13.69,13-20.94,19-7.42,6.13-14.23,13.41-22.49,17.08-9.27,4.11-19.12,3.95-27.69,4.11-10.47-1.21-20.6-.75-29.38-3.65-10-3.29-17.75-10-25.47-15.1-8.65-5.77-17.63-10.68-23.28-18.26-6-8.07-8-18.13-10.4-27.63C11,113.36,7.74,103.78,9,93.65c-1-9.83,2.3-18.57,4.36-26.85,2.31-9.23,4-18.56,9.22-25.72,5.43-7.4,14-11.77,21.61-16.79s15-11.16,23.75-13.62,18.45-1,27.49-.74c10.34-1.27,20.21-3.77,29.2-2.42,10.25,1.54,18.68,7.13,26.69,11.58,8.85,4.91,17.89,9.5,23.38,17.24s6.8,17.85,8.21,27.81C184.16,73.15,186.24,82.69,183.62,92.86Z"/>
          <path class="cls-3" d="M196.32,91.93C193,101.27,187,109.64,183,118.18c-4.23,9-6.76,18.82-12.29,26.42-5.79,7.94-14.25,13.13-22.06,18.85-7.5,5.48-14.94,12.07-24.86,14.93-8.51,2.44-18.44,1.28-29.11,1.4-10.26.93-19.85,2.72-28.33.51-9.44-2.45-16.69-9-24.08-14.7s-15.44-10.89-20.88-19c-5-7.51-7-17.15-10.63-26.29C7.45,111.8,2.2,103.27,0,93.8,1.18,84.47,6.3,76,10.13,67.53s6.7-17.77,12.6-25,14.57-11.83,22-17.32c7.61-5.65,14.57-12.51,23-15.88,8.9-3.55,18.6-3.22,27.62-3.73,9.38-.14,19.3-1,28.62,2.05,8.92,3,16.48,9.59,24.56,15,7.89,5.3,16.9,9.74,23.27,17s9.65,16.62,13.8,25.25S195.05,82.33,196.32,91.93Z"/>
          <path class="cls-4" d="M187.57,98.62c.67,9.47-3.43,18.25-7,26.8-3.44,8.27-6.56,17.37-13.14,24.38-6.1,6.49-15,10.4-23.11,15.48-7.65,4.76-14.94,11.1-23.84,14.34-8.57,3.11-18.06,3-27.3,4.45-8.92-1.06-17.79-.95-25.53-4.28-8.13-3.51-14.23-10.27-20.79-15.71-6.78-5.63-14.51-10.45-19.3-17.51-5-7.32-6.49-16.31-9-24.45-2.58-8.44-6.21-16.66-5.74-25.21-1.94-9.45.26-18.63,1.36-27.36,1.18-9.43,1.65-19,5.91-26.88C24.58,34.49,32.44,29,39.67,23.34S54,11.49,63.23,9.24c8.41-2,17.91-.06,27.68,1.25,10.71-1.44,20.72-3.61,29.56-1.73,10,2.14,17.88,8.54,25.61,14.3S162.16,34.4,167.67,43c5.07,7.88,7,17.92,10.33,27.65C181.07,79.56,185.89,88.58,187.57,98.62Z"/>
          <path class="cls-5" d="M185.3,89.66c-.39,10.61-4.22,20.2-6.64,29.35-2.7,10.21-4.46,20.43-9.81,28.42-5.6,8.36-14.39,13.65-23,19.11-7.95,5-16.3,11-26.95,13.13-9,1.82-19.17.09-30.15-.37-8.4.13-16.94.9-24.34-2.26s-12.75-9.86-18.62-15.83c-5.49-5.59-12.21-10.89-15.95-18.55-3.41-7-3.66-15.54-5.29-24-1.48-7.62-4.63-15.52-4.4-24.09C19.8,86.17,23,78,24.7,70c1.77-8.34,2.3-17.14,6.18-24.33,4-7.49,11.1-12.62,17.33-18S60.49,15.9,68.76,13.38c7.45-2.28,16-.79,25.11-.12,9.34-.17,18.55-1.71,26.87.17,9.07,2.05,16.57,7.54,24.07,11.69,8.06,4.47,16.63,8.12,22.41,14.6,6,6.71,8.54,15.64,11.58,24.05C181.74,71.91,185.6,80.36,185.3,89.66Z"/>
          <path class="cls-6" d="M181.26,96.76c-1.25,7.95-6.09,15.38-9.65,23.2-3.41,7.51-5.7,16-10.82,22.66s-12.81,11-19.3,16c-6.75,5.23-13,11.49-20.73,14.1-7.91,2.67-16.63,1.38-25.09.41-8.35,1.23-17.38,2.74-25.95.26-8.07-2.34-15-8.31-22.4-13.08S31.75,151.85,26,145.61c-6.12-6.58-9.19-15.16-12.75-22.55-4-8.35-8.4-16.57-7.87-24.68C7.57,89,12.68,80.74,16,72.54c3.63-9,5.79-18.35,10.78-25.69C32.14,39,40.11,33.7,47.14,28S61,15.41,69.89,12C78.11,8.91,87.6,9.24,97.42,8.4c8,.2,17.37.16,26.26,4.13,7.78,3.47,14.3,10.3,21.51,16,6.93,5.52,15.08,10.27,20.44,17.38s7.71,16.27,10.46,24.61S182.38,87.72,181.26,96.76Z"/>
          <path class="cls-7" d="M178.75,96.29c2,8.43-1.07,16.95-3.84,25.46-2.58,7.92-4.86,16.75-10.49,23.8-5.31,6.66-13.38,11-20.54,16.1S130,173,121.92,175.74c-8.39,2.88-17.33,2-25.87,1.65-7.71-1.5-16-1.85-23.24-5.46-7.06-3.52-12.45-10-18.51-15.24s-13.11-9.64-17.57-16.31-5.79-14.77-8.22-22.5c-2.32-7.4-6-14.73-6.05-23C19.7,86,20.93,77.59,21.13,70c.25-9,.15-17.66,3.83-24.71C28.84,37.86,36.19,33,43,27.91,49.42,23,55.88,17.11,64.12,14.45c7.73-2.5,16.45-1.65,25-2.08,9.77.05,19.16-1.07,27.52,1.21,9.28,2.53,16.68,8.49,24,13.37,7.81,5.17,16.1,9.82,21.51,17.13s7.43,16.62,10.19,25.56C175,78.14,178.74,86.77,178.75,96.29Z"/>
          <path class="cls-8" d="M184.06,95.64c-.71,8.91-5.31,17.1-9,25.11s-6.62,16.67-12.47,23.37-14.05,10.81-21.31,15.8-14.24,11.26-22.39,14.23c-8.53,3.11-17.63,2.68-26.19,3-8-1.12-16.41-1.25-23.74-4.75s-12.74-10-18.72-15.54-12.72-10.41-16.74-17.65C29.72,132.39,29,124,27.35,115.71c-1.53-7.54-4.4-15.34-3.78-23.91-1.31-7.87,1.12-15.59,2.49-23.19S28,52.7,31.87,45.89,42.46,34.51,48.45,29.28c5.72-5,11.15-11.16,18.62-14.28,6.89-2.88,15-2.59,23.15-3.43,10,.38,19.19-.41,27.21,2.06,9.25,2.85,16.27,9,23.3,14.18,7.43,5.43,15.36,10.36,20.73,17.74S169.09,62,172.79,70.47C176.37,78.69,181.56,86.78,184.06,95.64Z"/>
          <path class="cls-9" d="M168.41,94.6c-.13,8.83-3.37,16.66-5.24,24.19-2.1,8.47-3.23,17-7.57,23.63-4.52,6.94-11.87,11.26-18.87,16-6.44,4.38-13,9.84-21.57,12.19-7.36,2-15.86,1-24.82,1.41-8.4.05-16.87.59-24.35-2.48s-13.24-9.49-19.38-15.09c-5.93-5.41-12.89-10.41-17.15-17.6-4.1-6.91-5.24-15.4-7.43-23.45-2.12-7.75-5.51-15.75-5.54-24.1,1.87-7.6,6.86-14.83,10.54-22.5,3.5-7.29,5.84-15.61,10.86-22.18s12.34-11,18.72-16.06S69,17.24,76.74,14.34c7.48-2.81,15.83-2.17,24.41-2.19,7.72,1.47,15.95,1.72,23.16,5s12.84,9.5,18.85,14.54,13.15,9.65,17.25,16.39S165.22,63,166.57,71C167.79,78.39,170,86.22,168.41,94.6Z"/>
          <path class="cls-10" d="M170.8,91.32c2.15,8.48.39,16.48-.51,23.86-1,8.33-1.7,16.62-5.76,23.24-4.21,6.88-11.44,11.24-17.95,15.91s-12.91,10.1-20.67,12.18-16.12.58-24.12-.25c-8.89,1-17.14,3.25-24.49,2.34-8.88-1.11-16-5.64-22.56-9.16-7.54-4-15-7.84-19.57-14.38s-5.51-15-7-23.32c-1.35-7.57-3.68-15.48-2.52-24-2.38-8.66-.58-17,.6-24.84,1.27-8.46,2.34-17.12,6.9-24.08S45.25,37.32,52.23,32.48C59,27.78,65.8,22.21,74.08,20.08c7.92-2,16.61-.57,25.21.25,8.37-.54,16.25-2.12,23.11-.46,7.89,1.92,13.85,7.19,19.77,11.58C148.3,36,155,40.28,159,47c3.79,6.32,4.61,14.32,6.55,22.06C167.36,76.16,170.57,83.36,170.8,91.32Z"/>
          <path class="cls-11" d="M177.93,90.7c.39,9.09-3.34,17.41-6.54,25.37s-6.24,16.52-12.27,23.09c-5.77,6.28-14,10.17-21.6,14.9-7.31,4.56-14.36,10.32-22.69,13.21S97.64,170,89,171c-6.12-1.56-13.86-2.34-21.1-6.37-6.19-3.44-11.15-9.52-16.83-14.63-5.46-4.92-12.08-9.21-15.95-15.57s-4.55-13.9-5.78-21.44C28.23,106.13,26.2,99,28,91.16c-2.92-7.5-1-14.91.78-22.23,1.73-7.1,3.4-14.88,8.27-21.16C41.61,41.94,48.76,38.15,55,33.55S66.84,23.27,73.72,20.42c7.41-3.08,15.39-2.91,22.47-3.4,7.71.3,15.76.07,23.1,3.18,7,3,12.66,9,18.93,13.87,6.08,4.77,13.24,8.74,18.24,14.78s7.6,13.86,11.15,20.65C171.36,76.65,176.25,83.4,177.93,90.7Z"/>
          <path class="cls-12" d="M167.05,90.65c-.19,7.7-3.63,14.91-5.92,22-2.36,7.3-3.82,15.08-8,21.24-4.31,6.38-11,10.59-16.8,15.24-6,4.84-11.62,10.47-18.66,12.87s-15,1.38-22.63.7c-7.49.07-15.26,1.15-22.32-.83-7.28-2-13.3-7-19.43-10.88-6.46-4.08-13.5-7.54-17.85-13.29-4.53-6-5.77-13.6-7.08-21-1.23-6.88-3-14.1-.59-21.82-2-8-.36-15.47.4-22.58C29,64.43,29.4,56.51,33,50,36.65,43.26,43.24,38.67,49,33.68S60.3,22.91,67.38,20,82.3,17.26,89.9,16.61C98.33,18,106.28,17.72,113.07,20c8.13,2.72,14.21,8,20.22,11.9,7,4.54,14,8.32,18.53,14.36,4.62,6.21,6.17,14.16,8.63,21.81C162.72,75.14,166.26,82.45,167.05,90.65Z"/>
          <path class="cls-13" d="M178.84,92.32c-2.72,7.69-7.66,14.59-10.94,21.61-3.49,7.46-5.57,15.5-10.12,21.76-4.77,6.54-11.73,10.81-18.17,15.51-6.17,4.52-12.3,10-20.47,12.3-7,2-15.18,1.05-24,1.15-8.44.77-16.34,2.25-23.32.43-7.77-2-13.74-7.4-19.82-12.11s-12.72-9-17.2-15.66c-4.14-6.18-5.79-14.12-8.75-21.65-2.75-7-7.06-14-8.88-21.8,1-7.68,5.19-14.69,8.34-21.63S31.06,57.6,35.92,51.69,47.91,42,54,37.43c6.27-4.65,12-10.3,19-13.08,7.32-2.92,15.31-2.64,22.73-3.07,7.73-.11,15.9-.86,23.57,1.69,7.34,2.44,13.57,7.89,20.22,12.37s13.91,8,19.16,14S166.58,63,170,70.1,177.8,84.41,178.84,92.32Z"/>
          <path class="cls-14" d="M172.55,98c.55,7.88-2.86,15.19-5.81,22.3-2.87,6.89-5.46,14.46-10.93,20.3-5.08,5.4-12.47,8.65-19.24,12.87-6.36,4-12.43,9.24-19.84,11.94-7.13,2.59-15,2.49-22.72,3.71-7.43-.89-14.8-.79-21.25-3.57C66,162.61,60.92,157,55.46,152.45c-5.65-4.69-12.08-8.7-16.06-14.58-4.13-6.08-5.41-13.56-7.47-20.34-2.14-7-5.16-13.87-4.78-21-1.61-7.86.22-15.5,1.14-22.76,1-7.85,1.37-15.84,4.92-22.38C36.9,44.6,43.45,40,49.46,35.32s11.91-9.87,19.61-11.74c7-1.7,14.9,0,23,1.05,8.92-1.2,17.25-3,24.61-1.44,8.35,1.78,14.87,7.1,21.31,11.9s13.38,9.43,18,16.57c4.22,6.56,5.81,14.92,8.59,23C167.14,82.1,171.15,89.61,172.55,98Z"/>
          <path class="cls-15" d="M171.58,90.57c-.33,8.93-3.55,17-5.59,24.7-2.27,8.59-3.75,17.19-8.25,23.91-4.71,7-12.11,11.49-19.39,16.09-6.69,4.22-13.72,9.23-22.68,11-7.56,1.53-16.13.07-25.37-.31-7.07.11-14.26.75-20.48-1.91s-10.73-8.29-15.67-13.32c-4.61-4.7-10.27-9.16-13.42-15.61-2.87-5.87-3.08-13.07-4.45-20.15C35,108.61,32.38,102,32.57,94.75c-.26-7.12,2.42-14,3.87-20.74,1.49-7,1.94-14.43,5.2-20.48C45,47.23,51,42.91,56.22,38.35s10.33-9.84,17.29-12c6.27-1.91,13.51-.66,21.13-.1,7.86-.14,15.61-1.43,22.61.15,7.63,1.72,13.95,6.34,20.26,9.84,6.78,3.75,14,6.83,18.86,12.28,5,5.65,7.18,13.16,9.74,20.24C168.59,75.64,171.83,82.75,171.58,90.57Z"/>
          <path class="cls-16" d="M169.09,96.67c-1.07,6.77-5.18,13.09-8.21,19.75-2.9,6.39-4.85,13.64-9.21,19.28s-10.9,9.37-16.42,13.65c-5.75,4.46-11,9.78-17.64,12s-14.16,1.17-21.37.35c-7.1,1-14.78,2.33-22.07.21-6.87-2-12.78-7.07-19.07-11.13s-13.25-7.23-18.18-12.55c-5.21-5.59-7.82-12.9-10.85-19.19-3.41-7.09-7.15-14.09-6.7-21,1.9-8,6.25-15,9.07-22,3.09-7.65,4.92-15.62,9.17-21.86C42.18,47.48,49,43,55,38.11s11.8-10.67,19.36-13.55c7-2.65,15.07-2.37,23.43-3.09,6.83.17,14.78.14,22.35,3.52,6.62,3,12.17,8.76,18.3,13.65,5.9,4.7,12.83,8.74,17.4,14.79s6.56,13.85,8.9,20.95S170.05,89,169.09,96.67Z"/>
          <path class="cls-17" d="M167.87,96.4c1.7,7.26-.92,14.59-3.3,21.92-2.22,6.82-4.18,14.42-9,20.5-4.57,5.73-11.53,9.47-17.69,13.86s-11.93,9.73-18.91,12.13c-7.22,2.48-14.92,1.74-22.27,1.42-6.64-1.29-13.78-1.6-20-4.7S65.94,153,60.72,148.4s-11.29-8.29-15.13-14-5-12.72-7.08-19.37c-2-6.37-5.13-12.68-5.21-19.8C30.93,87.54,32,80.3,32.16,73.77c.21-7.76.13-15.2,3.3-21.28,3.34-6.41,9.67-10.55,15.49-15,5.56-4.21,11.13-9.3,18.22-11.59,6.65-2.15,14.16-1.42,21.55-1.79,8.41,0,16.5-.92,23.7,1,8,2.18,14.37,7.31,20.7,11.51,6.73,4.45,13.87,8.46,18.52,14.75s6.4,14.32,8.78,22C164.67,80.77,167.86,88.2,167.87,96.4Z"/>
          <path class="cls-18" d="M173.46,96c-.62,7.76-4.63,14.9-7.82,21.88s-5.77,14.53-10.87,20.36S142.53,147.63,136.2,152s-12.41,9.81-19.51,12.39c-7.43,2.71-15.37,2.34-22.82,2.65-7-1-14.31-1.1-20.7-4.15s-11.1-8.68-16.3-13.54S45.78,140.26,42.28,134c-3.32-6-3.92-13.3-5.39-20.51-1.33-6.56-3.83-13.37-3.29-20.83-1.14-6.86,1-13.59,2.17-20.21s1.67-13.87,5.06-19.8,9.23-9.91,14.44-14.47c5-4.37,9.72-9.73,16.23-12.45,6-2.51,13-2.26,20.18-3,8.67.33,16.72-.36,23.71,1.79,8.06,2.49,14.18,7.88,20.3,12.36,6.48,4.74,13.39,9,18.07,15.46s6.65,14.31,9.88,21.72C166.76,81.18,171.28,88.23,173.46,96Z"/>
          <path class="cls-19" d="M160.69,95.16c-.11,7.79-3,14.69-4.62,21.34-1.85,7.47-2.85,15-6.67,20.85-4,6.12-10.48,9.93-16.65,14.13-5.69,3.86-11.47,8.68-19,10.75-6.5,1.78-14,.89-21.9,1.25-7.42,0-14.89.52-21.49-2.2S58.65,152.91,53.23,148C48,143.2,41.86,138.79,38.1,132.45c-3.62-6.1-4.62-13.6-6.56-20.7-1.86-6.84-4.86-13.89-4.88-21.26,1.65-6.71,6.05-13.08,9.3-19.85,3.09-6.43,5.15-13.77,9.58-19.58s10.89-9.67,16.51-14.17,11-10,17.77-12.55c6.59-2.48,14-1.92,21.53-1.93,6.82,1.3,14.08,1.52,20.44,4.45s11.32,8.37,16.63,12.83S150,48.2,153.63,54.15s4.26,13.1,5.44,20.21C160.15,80.85,162.11,87.76,160.69,95.16Z"/>
          <path class="cls-20" d="M163.74,92.34c1.93,7.57.36,14.72-.45,21.32-.9,7.44-1.52,14.85-5.15,20.77-3.76,6.14-10.22,10-16,14.21s-11.53,9-18.47,10.89-14.41.51-21.56-.23c-7.94.92-15.31,2.91-21.88,2.09-7.93-1-14.26-5-20.16-8.19-6.74-3.59-13.44-7-17.49-12.85S37.62,127,36.28,119.52C35.07,112.75,33,105.68,34,98c-2.12-7.74-.51-15.16.54-22.19,1.14-7.57,2.1-15.3,6.17-21.52S51.55,44.08,57.79,39.75c6.05-4.2,12.13-9.17,19.52-11.08,7.08-1.82,14.85-.51,22.53.22,7.48-.48,14.53-1.89,20.65-.4,7.06,1.71,12.38,6.42,17.67,10.34,5.48,4.07,11.47,7.9,15.06,13.87,3.4,5.65,4.12,12.79,5.86,19.72C160.67,78.78,163.54,85.22,163.74,92.34Z"/>
          <path class="cls-21" d="M171.17,91.84c.36,8.23-3,15.77-5.92,23s-5.64,15-11.11,20.91c-5.22,5.69-12.69,9.21-19.55,13.49-6.62,4.13-13,9.34-20.55,12s-15.56,2.46-23.38,3.38c-5.54-1.42-12.55-2.12-19.1-5.77-5.6-3.11-10.1-8.62-15.24-13.25-5-4.45-10.94-8.33-14.45-14.1s-4.11-12.58-5.23-19.4c-1-6.21-2.84-12.66-1.19-19.77-2.65-6.79-.9-13.5.71-20.13C37.72,65.7,39.23,58.66,43.65,53c4.1-5.28,10.57-8.71,16.21-12.87s10.73-9.32,17-11.9c6.71-2.78,13.94-2.63,20.35-3.08,7,.28,14.27.07,20.91,2.88,6.36,2.7,11.46,8.11,17.14,12.56,5.51,4.32,12,7.92,16.51,13.38s6.88,12.56,10.1,18.71C165.23,79.12,169.65,85.23,171.17,91.84Z"/>
          <path class="cls-22" d="M162.29,91.86c-.17,7.07-3.33,13.68-5.43,20.17-2.17,6.7-3.51,13.84-7.33,19.5-4,5.85-10.13,9.71-15.42,14-5.5,4.45-10.67,9.61-17.13,11.81s-13.75,1.27-20.77.65c-6.87.06-14,1.05-20.48-.76-6.69-1.87-12.21-6.44-17.84-10C52,143.47,45.5,140.3,41.51,135c-4.15-5.49-5.29-12.48-6.5-19.24-1.12-6.31-2.73-12.94-.54-20-1.85-7.34-.33-14.19.36-20.72.78-7.24,1.13-14.5,4.41-20.5,3.38-6.17,9.42-10.39,14.74-15S64.31,29.68,70.81,27s13.7-2.5,20.67-3.09c7.74,1.26,15,1,21.27,3.09,7.47,2.5,13,7.32,18.56,10.93,6.39,4.16,12.88,7.63,17,13.17,4.25,5.71,5.67,13,7.92,20C158.32,77.62,161.57,84.33,162.29,91.86Z"/>
          <path class="cls-23" d="M163.81,93.11c.47,8-2.25,14.93-4.17,21.57-2.12,7.35-3.91,14.76-8.52,20.35s-11.59,8.8-18.24,12.46c-6.19,3.42-12.49,7.77-20,9.37-6.89,1.45-14.47.2-22.19,0-6,0-12.5.57-18.44-1.86-5.54-2.27-9.92-7.17-14.86-11.19-4.7-3.83-10.41-7-14.11-12.13s-4.88-11.34-7.09-17.2c-2.16-5.7-5.46-11.39-5.93-17.68.15-7.8,3-14.93,4.6-21.7C36.64,67.56,37.6,60,41.25,54c3.93-6.46,10.31-10.57,16.33-14.76,5.8-4,11.8-8.69,19.48-10.25,6.65-1.35,14.16.24,22.18,1,6.31-.44,13.48-1.16,20.23,1.29,6.14,2.22,11.33,7.19,16.94,11.22s11.9,7.23,16.1,12.39c4.41,5.43,6.18,12.31,8.23,18.49C162.9,79.89,165.37,86.44,163.81,93.11Z"/>
        </g>
        <g>
          <ellipse class="cls-24" cx="145.11" cy="36.63" rx="12.46" ry="14.47" transform="translate(31.72 134.31) rotate(-54.91)"/>
          <ellipse class="cls-25" cx="144.72" cy="34.39" rx="9.97" ry="11.58" transform="translate(33.39 133.03) rotate(-54.91)"/>
          <ellipse class="cls-26" cx="144.72" cy="34.39" rx="7.97" ry="9.26" transform="translate(33.39 133.03) rotate(-54.91)"/>
        </g>
        <g>
          <ellipse class="cls-24" cx="56.63" cy="81.43" rx="14.47" ry="12.46" transform="translate(-42.38 87.36) rotate(-58.61)"/>
          <ellipse class="cls-25" cx="54.42" cy="81.96" rx="11.58" ry="9.97" transform="matrix(0.52, -0.85, 0.85, 0.52, -43.89, 85.73)"/>
          <ellipse class="cls-26" cx="54.42" cy="81.96" rx="9.26" ry="7.97" transform="translate(-43.89 85.73) rotate(-58.61)"/>
        </g>
        <g>
          <ellipse class="cls-24" cx="175.81" cy="117.51" rx="14.47" ry="12.46" transform="translate(58.08 293.18) rotate(-89.93)"/>
          <ellipse class="cls-25" cx="174.2" cy="119.12" rx="11.58" ry="9.97" transform="translate(54.87 293.18) rotate(-89.93)"/>
          <ellipse class="cls-26" cx="174.2" cy="119.12" rx="9.26" ry="7.97" transform="translate(54.87 293.18) rotate(-89.93)"/>
        </g>
        <g>
          <ellipse class="cls-24" cx="18.61" cy="124.07" rx="10.44" ry="12.12" transform="translate(-93.61 67.97) rotate(-54.91)"/>
          <ellipse class="cls-25" cx="18.28" cy="122.19" rx="8.35" ry="9.7" transform="matrix(0.57, -0.82, 0.82, 0.57, -92.21, 66.9)"/>
          <ellipse class="cls-26" cx="18.28" cy="122.19" rx="6.68" ry="7.76" transform="translate(-92.21 66.9) rotate(-54.91)"/>
        </g>
        <g>
          <ellipse class="cls-24" cx="122.65" cy="119.68" rx="12.69" ry="10.93" transform="matrix(0.85, -0.52, 0.52, 0.85, -44.47, 81.78)"/>
          <ellipse class="cls-25" cx="120.71" cy="119.22" rx="10.15" ry="8.74" transform="translate(-44.52 80.7) rotate(-31.52)"/>
          <ellipse class="cls-26" cx="120.71" cy="119.22" rx="8.12" ry="6.99" transform="translate(-44.52 80.7) rotate(-31.52)"/>
        </g>
        <g>
          <ellipse class="cls-24" cx="63.43" cy="165.1" rx="12.46" ry="14.47" transform="translate(-108.13 122.09) rotate(-54.91)"/>
          <ellipse class="cls-25" cx="63.04" cy="162.86" rx="9.97" ry="11.58" transform="translate(-106.46 120.82) rotate(-54.91)"/>
          <ellipse class="cls-26" cx="63.04" cy="162.86" rx="7.97" ry="9.26" transform="translate(-106.46 120.82) rotate(-54.91)"/>
        </g>
        <g>
          <ellipse class="cls-24" cx="53.5" cy="23.41" rx="14.47" ry="12.46"/>
          <ellipse class="cls-25" cx="51.89" cy="21.8" rx="11.58" ry="9.97"/>
          <ellipse class="cls-26" cx="51.89" cy="21.8" rx="9.26" ry="7.97"/>
        </g>
        <g>
          <ellipse class="cls-24" cx="109.8" cy="36.26" rx="9.34" ry="8.04" transform="translate(-4.32 54.9) rotate(-27.55)"/>
          <ellipse class="cls-25" cx="108.4" cy="35.82" rx="7.47" ry="6.43" transform="translate(-4.28 54.21) rotate(-27.55)"/>
          <ellipse class="cls-26" cx="108.4" cy="35.82" rx="5.98" ry="5.15" transform="translate(-4.28 54.21) rotate(-27.55)"/>
        </g>
      </g>
      <g>
        <ellipse class="cls-24" cx="110.71" cy="146.92" rx="8.04" ry="9.34" transform="translate(-68.93 186.58) rotate(-65.45)"/>
        <ellipse class="cls-25" cx="110.2" cy="145.54" rx="6.43" ry="7.47" transform="translate(-67.97 185.31) rotate(-65.45)"/>
        <ellipse class="cls-26" cx="110.2" cy="145.54" rx="5.15" ry="5.98" transform="translate(-67.97 185.31) rotate(-65.45)"/>
      </g>
    </g>
  </g>
</svg>
